<?xml version="1.0" encoding="UTF-8" standalone="no"?>
<!DOCTYPE svg PUBLIC "-//W3C//DTD SVG 1.1//EN"
 "http://www.w3.org/Graphics/SVG/1.1/DTD/svg11.dtd">
<!-- Generated by graphviz version 2.47.0 (20210316.0004)
 -->
<!-- Title: dependencies Pages: 1 -->
<svg width="2092pt" height="284pt"
 viewBox="0.00 0.00 2092.00 284.00" xmlns="http://www.w3.org/2000/svg" xmlns:xlink="http://www.w3.org/1999/xlink">
<g id="graph0" class="graph" transform="scale(1 1) rotate(0) translate(4 280)">
<title>dependencies</title>
<polygon fill="white" stroke="transparent" points="-4,4 -4,-280 2088,-280 2088,4 -4,4"/>
<text text-anchor="start" x="1021.01" y="-42.4" font-family="Times-12" font-weight="bold" font-size="14.00">Legend</text>
<polygon fill="#ffffb3" stroke="transparent" points="808,-10 808,-30 828,-30 828,-10 808,-10"/>
<text text-anchor="start" x="831.63" y="-15.4" font-family="Times-12" font-size="14.00"> &#160;Declarations</text>
<polygon fill="#8dd3c7" stroke="transparent" points="921,-10 921,-30 941,-30 941,-10 921,-10"/>
<text text-anchor="start" x="944.73" y="-15.4" font-family="Times-12" font-size="14.00"> &#160;Module</text>
<polygon fill="#80b1d3" stroke="transparent" points="1007,-10 1007,-30 1027,-30 1027,-10 1007,-10"/>
<text text-anchor="start" x="1030.78" y="-15.4" font-family="Times-12" font-size="14.00"> &#160;Bootstrap</text>
<polygon fill="#fdb462" stroke="transparent" points="1104,-10 1104,-30 1124,-30 1124,-10 1104,-10"/>
<text text-anchor="start" x="1127.67" y="-15.4" font-family="Times-12" font-size="14.00"> &#160;Providers</text>
<polygon fill="#fb8072" stroke="transparent" points="1200,-10 1200,-30 1220,-30 1220,-10 1200,-10"/>
<text text-anchor="start" x="1223.73" y="-15.4" font-family="Times-12" font-size="14.00"> &#160;Exports</text>
<g id="clust1" class="cluster">
<title>cluster_AppModule</title>
<polygon fill="none" stroke="black" stroke-dasharray="1,5" points="8,-70 8,-268 2076,-268 2076,-70 8,-70"/>
</g>
<g id="clust15" class="cluster">
<title>cluster_AppModule_imports</title>
<polygon fill="none" stroke="black" points="1924,-78 1924,-130 2068,-130 2068,-78 1924,-78"/>
</g>
<g id="clust17" class="cluster">
<title>cluster_AppModule_bootstrap</title>
<polygon fill="none" stroke="black" points="1053,-208 1053,-260 1177,-260 1177,-208 1053,-208"/>
</g>
<g id="clust2" class="cluster">
<title>cluster_AppModule_declarations</title>
<polygon fill="none" stroke="black" points="16,-78 16,-130 1916,-130 1916,-78 16,-78"/>
</g>
<!-- AboutComponent -->
<g id="node1" class="node">
<title>AboutComponent</title>
<polygon fill="#ffffb3" stroke="black" points="1908.33,-122 1791.67,-122 1791.67,-86 1908.33,-86 1908.33,-122"/>
<text text-anchor="middle" x="1850" y="-99.8" font-family="Times,serif" font-size="14.00">AboutComponent</text>
</g>
<!-- AppModule -->
<g id="node13" class="node">
<title>AppModule</title>
<polygon fill="#8dd3c7" stroke="black" points="1156.66,-187 1153.66,-191 1132.66,-191 1129.66,-187 1073.34,-187 1073.34,-151 1156.66,-151 1156.66,-187"/>
<text text-anchor="middle" x="1115" y="-164.8" font-family="Times,serif" font-size="14.00">AppModule</text>
</g>
<!-- AboutComponent&#45;&gt;AppModule -->
<g id="edge1" class="edge">
<title>AboutComponent&#45;&gt;AppModule</title>
<path fill="none" stroke="black" d="M1850,-122.04C1850,-143.66 1850,-177 1850,-177 1850,-177 1166.89,-177 1166.89,-177"/>
<polygon fill="black" stroke="black" points="1166.89,-173.5 1156.89,-177 1166.89,-180.5 1166.89,-173.5"/>
</g>
<!-- AppComponent -->
<g id="node2" class="node">
<title>AppComponent</title>
<polygon fill="#ffffb3" stroke="black" points="1773.94,-122 1668.06,-122 1668.06,-86 1773.94,-86 1773.94,-122"/>
<text text-anchor="middle" x="1721" y="-99.8" font-family="Times,serif" font-size="14.00">AppComponent</text>
</g>
<!-- AppComponent&#45;&gt;AppModule -->
<g id="edge2" class="edge">
<title>AppComponent&#45;&gt;AppModule</title>
<path fill="none" stroke="black" d="M1721,-122.22C1721,-142.37 1721,-172 1721,-172 1721,-172 1167.13,-172 1167.13,-172"/>
<polygon fill="black" stroke="black" points="1167.13,-168.5 1157.13,-172 1167.13,-175.5 1167.13,-168.5"/>
</g>
<!-- CalculatorComponent -->
<g id="node3" class="node">
<title>CalculatorComponent</title>
<polygon fill="#ffffb3" stroke="black" points="1649.65,-122 1510.35,-122 1510.35,-86 1649.65,-86 1649.65,-122"/>
<text text-anchor="middle" x="1580" y="-99.8" font-family="Times,serif" font-size="14.00">CalculatorComponent</text>
</g>
<!-- CalculatorComponent&#45;&gt;AppModule -->
<g id="edge3" class="edge">
<title>CalculatorComponent&#45;&gt;AppModule</title>
<path fill="none" stroke="black" d="M1580,-122.22C1580,-140.83 1580,-167 1580,-167 1580,-167 1166.67,-167 1166.67,-167"/>
<polygon fill="black" stroke="black" points="1166.67,-163.5 1156.67,-167 1166.67,-170.5 1166.67,-163.5"/>
</g>
<!-- ContactComponent -->
<g id="node4" class="node">
<title>ContactComponent</title>
<polygon fill="#ffffb3" stroke="black" points="1492.38,-122 1367.62,-122 1367.62,-86 1492.38,-86 1492.38,-122"/>
<text text-anchor="middle" x="1430" y="-99.8" font-family="Times,serif" font-size="14.00">ContactComponent</text>
</g>
<!-- ContactComponent&#45;&gt;AppModule -->
<g id="edge4" class="edge">
<title>ContactComponent&#45;&gt;AppModule</title>
<path fill="none" stroke="black" d="M1430,-122.03C1430,-139.06 1430,-162 1430,-162 1430,-162 1166.83,-162 1166.83,-162"/>
<polygon fill="black" stroke="black" points="1166.83,-158.5 1156.83,-162 1166.83,-165.5 1166.83,-158.5"/>
</g>
<!-- FooterComponent -->
<g id="node5" class="node">
<title>FooterComponent</title>
<polygon fill="#ffffb3" stroke="black" points="1349.88,-122 1232.12,-122 1232.12,-86 1349.88,-86 1349.88,-122"/>
<text text-anchor="middle" x="1291" y="-99.8" font-family="Times,serif" font-size="14.00">FooterComponent</text>
</g>
<!-- FooterComponent&#45;&gt;AppModule -->
<g id="edge5" class="edge">
<title>FooterComponent&#45;&gt;AppModule</title>
<path fill="none" stroke="black" d="M1291,-122.24C1291,-137.57 1291,-157 1291,-157 1291,-157 1166.71,-157 1166.71,-157"/>
<polygon fill="black" stroke="black" points="1166.71,-153.5 1156.71,-157 1166.71,-160.5 1166.71,-153.5"/>
</g>
<!-- FunctionInformationComponent -->
<g id="node6" class="node">
<title>FunctionInformationComponent</title>
<polygon fill="#ffffb3" stroke="black" points="1213.98,-122 1016.02,-122 1016.02,-86 1213.98,-86 1213.98,-122"/>
<text text-anchor="middle" x="1115" y="-99.8" font-family="Times,serif" font-size="14.00">FunctionInformationComponent</text>
</g>
<!-- FunctionInformationComponent&#45;&gt;AppModule -->
<g id="edge6" class="edge">
<title>FunctionInformationComponent&#45;&gt;AppModule</title>
<path fill="none" stroke="black" d="M1115,-122.11C1115,-122.11 1115,-140.99 1115,-140.99"/>
<polygon fill="black" stroke="black" points="1111.5,-140.99 1115,-150.99 1118.5,-140.99 1111.5,-140.99"/>
</g>
<!-- FunctionInputComponent -->
<g id="node7" class="node">
<title>FunctionInputComponent</title>
<polygon fill="#ffffb3" stroke="black" points="998.16,-122 837.84,-122 837.84,-86 998.16,-86 998.16,-122"/>
<text text-anchor="middle" x="918" y="-99.8" font-family="Times,serif" font-size="14.00">FunctionInputComponent</text>
</g>
<!-- FunctionInputComponent&#45;&gt;AppModule -->
<g id="edge7" class="edge">
<title>FunctionInputComponent&#45;&gt;AppModule</title>
<path fill="none" stroke="black" d="M918,-122.24C918,-137.57 918,-157 918,-157 918,-157 1063.22,-157 1063.22,-157"/>
<polygon fill="black" stroke="black" points="1063.22,-160.5 1073.22,-157 1063.22,-153.5 1063.22,-160.5"/>
</g>
<!-- HeaderComponent -->
<g id="node8" class="node">
<title>HeaderComponent</title>
<polygon fill="#ffffb3" stroke="black" points="819.74,-122 698.26,-122 698.26,-86 819.74,-86 819.74,-122"/>
<text text-anchor="middle" x="759" y="-99.8" font-family="Times,serif" font-size="14.00">HeaderComponent</text>
</g>
<!-- HeaderComponent&#45;&gt;AppModule -->
<g id="edge8" class="edge">
<title>HeaderComponent&#45;&gt;AppModule</title>
<path fill="none" stroke="black" d="M759,-122.03C759,-139.06 759,-162 759,-162 759,-162 1063.12,-162 1063.12,-162"/>
<polygon fill="black" stroke="black" points="1063.12,-165.5 1073.12,-162 1063.12,-158.5 1063.12,-165.5"/>
</g>
<!-- HomepageComponent -->
<g id="node9" class="node">
<title>HomepageComponent</title>
<polygon fill="#ffffb3" stroke="black" points="679.97,-122 538.03,-122 538.03,-86 679.97,-86 679.97,-122"/>
<text text-anchor="middle" x="609" y="-99.8" font-family="Times,serif" font-size="14.00">HomepageComponent</text>
</g>
<!-- HomepageComponent&#45;&gt;AppModule -->
<g id="edge9" class="edge">
<title>HomepageComponent&#45;&gt;AppModule</title>
<path fill="none" stroke="black" d="M609,-122.22C609,-140.83 609,-167 609,-167 609,-167 1063.16,-167 1063.16,-167"/>
<polygon fill="black" stroke="black" points="1063.16,-170.5 1073.16,-167 1063.16,-163.5 1063.16,-170.5"/>
</g>
<!-- ResultDisplayComponent -->
<g id="node10" class="node">
<title>ResultDisplayComponent</title>
<polygon fill="#ffffb3" stroke="black" points="520.16,-122 359.84,-122 359.84,-86 520.16,-86 520.16,-122"/>
<text text-anchor="middle" x="440" y="-99.8" font-family="Times,serif" font-size="14.00">ResultDisplayComponent</text>
</g>
<!-- ResultDisplayComponent&#45;&gt;AppModule -->
<g id="edge10" class="edge">
<title>ResultDisplayComponent&#45;&gt;AppModule</title>
<path fill="none" stroke="black" d="M440,-122.22C440,-142.37 440,-172 440,-172 440,-172 1063.29,-172 1063.29,-172"/>
<polygon fill="black" stroke="black" points="1063.29,-175.5 1073.29,-172 1063.29,-168.5 1063.29,-175.5"/>
</g>
<!-- SpecialFunctionComponent -->
<g id="node11" class="node">
<title>SpecialFunctionComponent</title>
<polygon fill="#ffffb3" stroke="black" points="342.32,-122 169.68,-122 169.68,-86 342.32,-86 342.32,-122"/>
<text text-anchor="middle" x="256" y="-99.8" font-family="Times,serif" font-size="14.00">SpecialFunctionComponent</text>
</g>
<!-- SpecialFunctionComponent&#45;&gt;AppModule -->
<g id="edge11" class="edge">
<title>SpecialFunctionComponent&#45;&gt;AppModule</title>
<path fill="none" stroke="black" d="M256,-122.04C256,-143.66 256,-177 256,-177 256,-177 1063.28,-177 1063.28,-177"/>
<polygon fill="black" stroke="black" points="1063.28,-180.5 1073.28,-177 1063.28,-173.5 1063.28,-180.5"/>
</g>
<!-- SvgIconComponent -->
<g id="node12" class="node">
<title>SvgIconComponent</title>
<polygon fill="#ffffb3" stroke="black" points="151.99,-122 24.01,-122 24.01,-86 151.99,-86 151.99,-122"/>
<text text-anchor="middle" x="88" y="-99.8" font-family="Times,serif" font-size="14.00">SvgIconComponent</text>
</g>
<!-- SvgIconComponent&#45;&gt;AppModule -->
<g id="edge12" class="edge">
<title>SvgIconComponent&#45;&gt;AppModule</title>
<path fill="none" stroke="black" d="M88,-122.09C88,-145.13 88,-182 88,-182 88,-182 1063.15,-182 1063.15,-182"/>
<polygon fill="black" stroke="black" points="1063.15,-185.5 1073.15,-182 1063.15,-178.5 1063.15,-185.5"/>
</g>
<!-- AppComponent  -->
<g id="node15" class="node">
<title>AppComponent </title>
<polygon fill="#80b1d3" stroke="black" points="1169.44,-252 1060.56,-252 1060.56,-216 1169.44,-216 1169.44,-252"/>
<text text-anchor="middle" x="1115" y="-229.8" font-family="Times,serif" font-size="14.00">AppComponent </text>
</g>
<!-- AppModule&#45;&gt;AppComponent  -->
<g id="edge14" class="edge">
<title>AppModule&#45;&gt;AppComponent </title>
<path fill="none" stroke="black" stroke-dasharray="1,5" d="M1115,-187.11C1115,-187.11 1115,-205.99 1115,-205.99"/>
<polygon fill="black" stroke="black" points="1111.5,-205.99 1115,-215.99 1118.5,-205.99 1111.5,-205.99"/>
</g>
<!-- AppRoutingModule -->
<g id="node14" class="node">
<title>AppRoutingModule</title>
<polygon fill="#8dd3c7" stroke="black" points="2060.27,-122 2057.27,-126 2036.27,-126 2033.27,-122 1931.73,-122 1931.73,-86 2060.27,-86 2060.27,-122"/>
<text text-anchor="middle" x="1996" y="-99.8" font-family="Times,serif" font-size="14.00">AppRoutingModule</text>
</g>
<!-- AppRoutingModule&#45;&gt;AppModule -->
<g id="edge13" class="edge">
<title>AppRoutingModule&#45;&gt;AppModule</title>
<path fill="none" stroke="black" d="M1996,-122.09C1996,-145.13 1996,-182 1996,-182 1996,-182 1166.9,-182 1166.9,-182"/>
<polygon fill="black" stroke="black" points="1166.9,-178.5 1156.9,-182 1166.9,-185.5 1166.9,-178.5"/>
</g>
</g>
</svg>
